<svg xmlns="http://www.w3.org/2000/svg" xmlns:xlink="http://www.w3.org/1999/xlink" viewBox="0 0 1024 1024" width="100" height="100"><defs><clipPath id="a"><rect width="1024" height="1024" fill="none"/></clipPath><clipPath id="b"><path d="M512,1304a6.1,6.1,0,0,1-6.2,6H-275.4a6.1,6.1,0,0,1-6.2-6V-220a6.1,6.1,0,0,1,6.2-6H505.8a6.1,6.1,0,0,1,6.2,6Z" fill="none"/></clipPath><clipPath id="c"><path d="M1305.6,1304a6.1,6.1,0,0,1-6.2,6H518.2a6.1,6.1,0,0,1-6.2-6V-220a6.1,6.1,0,0,1,6.2-6h781.2a6.1,6.1,0,0,1,6.2,6Z" fill="none"/></clipPath></defs><title>Ψlogo</title><g style="isolation:isolate"><g clip-path="url(#a)"><rect width="512" height="1024" fill="#007acc"/><rect x="512" width="512" height="1024" fill="#f7df1e"/><g opacity="0.33"><rect x="-0.5" y="-0.5" width="103.4" height="103.4" fill="#b7b7b7"/><rect x="101.9" y="-0.5" width="103.4" height="103.4" fill="#b9b9b9"/><rect x="204.3" y="-0.5" width="103.4" height="103.4" fill="#bababa"/><rect x="306.7" y="-0.5" width="103.4" height="103.4" fill="#bcbcbc"/><rect x="409.1" y="-0.5" width="103.4" height="103.4" fill="#bbb"/><rect x="511.5" y="-0.5" width="103.4" height="103.4" fill="#bbb"/><rect x="613.9" y="-0.5" width="103.4" height="103.4" fill="#bababa"/><rect x="716.3" y="-0.5" width="103.4" height="103.4" fill="#bababa"/><rect x="818.7" y="-0.5" width="103.4" height="103.4" fill="#b9b9b9"/><rect x="921.1" y="-0.5" width="103.4" height="103.4" fill="#b8b8b8"/><rect x="-0.5" y="101.9" width="103.4" height="103.4" fill="#b7b7b7"/><rect x="101.9" y="101.9" width="103.4" height="103.4" fill="#b9b9b9"/><rect x="204.3" y="101.9" width="103.4" height="103.4" fill="#bbb"/><rect x="306.7" y="101.9" width="103.4" height="103.4" fill="#c4c4c4"/><rect x="409.1" y="101.9" width="103.4" height="103.4" fill="#ccc"/><rect x="511.5" y="101.9" width="103.4" height="103.4" fill="#cdcdcd"/><rect x="613.9" y="101.9" width="103.4" height="103.4" fill="#c8c8c8"/><rect x="716.3" y="101.9" width="103.4" height="103.4" fill="#c1c1c1"/><rect x="818.7" y="101.9" width="103.4" height="103.4" fill="#bababa"/><rect x="921.1" y="101.9" width="103.4" height="103.4" fill="#b9b9b9"/><rect x="-0.5" y="204.3" width="103.4" height="103.4" fill="#b7b7b7"/><rect x="101.9" y="204.3" width="103.4" height="103.4" fill="#bababa"/><rect x="204.3" y="204.3" width="103.4" height="103.4" fill="#c8c8c8"/><rect x="306.7" y="204.3" width="103.4" height="103.4" fill="#dcdcdc"/><rect x="409.1" y="204.3" width="103.4" height="103.4" fill="#e7e7e7"/><rect x="511.5" y="204.3" width="103.4" height="103.4" fill="#e5e5e5"/><rect x="613.9" y="204.3" width="103.4" height="103.4" fill="#dbdbdb"/><rect x="716.3" y="204.3" width="103.4" height="103.4" fill="#d0d0d0"/><rect x="818.7" y="204.3" width="103.4" height="103.4" fill="#c1c1c1"/><rect x="921.1" y="204.3" width="103.4" height="103.4" fill="#b9b9b9"/><rect x="-0.5" y="306.7" width="103.4" height="103.4" fill="#b9b9b9"/><rect x="101.9" y="306.7" width="103.4" height="103.4" fill="#c2c2c2"/><rect x="204.3" y="306.7" width="103.4" height="103.4" fill="#d9d9d9"/><rect x="306.7" y="306.7" width="103.4" height="103.4" fill="#ececec"/><rect x="409.1" y="306.7" width="103.4" height="103.4" fill="#eee"/><rect x="511.5" y="306.7" width="103.4" height="103.4" fill="#efefef"/><rect x="613.9" y="306.7" width="103.4" height="103.4" fill="#ebebeb"/><rect x="716.3" y="306.7" width="103.4" height="103.4" fill="#d5d5d5"/><rect x="818.7" y="306.7" width="103.4" height="103.4" fill="#c8c8c8"/><rect x="921.1" y="306.7" width="103.4" height="103.4" fill="#bebebe"/><rect x="-0.5" y="409.1" width="103.4" height="103.4" fill="#b9b9b9"/><rect x="101.9" y="409.1" width="103.4" height="103.4" fill="#c9c9c9"/><rect x="204.3" y="409.1" width="103.4" height="103.4" fill="#e2e2e2"/><rect x="306.7" y="409.1" width="103.4" height="103.4" fill="#eee"/><rect x="409.1" y="409.1" width="103.4" height="103.4" fill="#eee"/><rect x="511.5" y="409.1" width="103.4" height="103.4" fill="#eee"/><rect x="613.9" y="409.1" width="103.4" height="103.4" fill="#ededed"/><rect x="716.3" y="409.1" width="103.4" height="103.4" fill="#dbdbdb"/><rect x="818.7" y="409.1" width="103.4" height="103.4" fill="#c6c6c6"/><rect x="921.1" y="409.1" width="103.4" height="103.4" fill="#bebebe"/><rect x="-0.5" y="511.5" width="103.4" height="103.4" fill="#bbb"/><rect x="101.9" y="511.5" width="103.4" height="103.4" fill="#cbcbcb"/><rect x="204.3" y="511.5" width="103.4" height="103.4" fill="#e0e0e0"/><rect x="306.7" y="511.5" width="103.4" height="103.4" fill="#ededed"/><rect x="409.1" y="511.5" width="103.4" height="103.4" fill="#ededed"/><rect x="511.5" y="511.5" width="103.4" height="103.4" fill="#ededed"/><rect x="613.9" y="511.5" width="103.4" height="103.4" fill="#eaeaea"/><rect x="716.3" y="511.5" width="103.4" height="103.4" fill="#d8d8d8"/><rect x="818.7" y="511.5" width="103.4" height="103.4" fill="#c3c3c3"/><rect x="921.1" y="511.5" width="103.4" height="103.4" fill="#bababa"/><rect x="-0.5" y="613.9" width="103.4" height="103.4" fill="#bababa"/><rect x="101.9" y="613.9" width="103.4" height="103.4" fill="#c7c7c7"/><rect x="204.3" y="613.9" width="103.4" height="103.4" fill="#d9d9d9"/><rect x="306.7" y="613.9" width="103.4" height="103.4" fill="#e5e5e5"/><rect x="409.1" y="613.9" width="103.4" height="103.4" fill="#ebebeb"/><rect x="511.5" y="613.9" width="103.4" height="103.4" fill="#eaeaea"/><rect x="613.9" y="613.9" width="103.4" height="103.4" fill="#e7e7e7"/><rect x="716.3" y="613.9" width="103.4" height="103.4" fill="#cbcbcb"/><rect x="818.7" y="613.9" width="103.4" height="103.4" fill="#bdbdbd"/><rect x="921.1" y="613.9" width="103.4" height="103.4" fill="#b6b6b6"/><rect x="-0.5" y="716.3" width="103.4" height="103.4" fill="#b9b9b9"/><rect x="101.9" y="716.3" width="103.4" height="103.4" fill="#bebebe"/><rect x="204.3" y="716.3" width="103.4" height="103.4" fill="#ccc"/><rect x="306.7" y="716.3" width="103.4" height="103.4" fill="#d2d2d2"/><rect x="409.1" y="716.3" width="103.4" height="103.4" fill="#dcdcdc"/><rect x="511.5" y="716.3" width="103.4" height="103.4" fill="#ddd"/><rect x="613.9" y="716.3" width="103.4" height="103.4" fill="#ccc"/><rect x="716.3" y="716.3" width="103.4" height="103.4" fill="#bcbcbc"/><rect x="818.7" y="716.3" width="103.4" height="103.4" fill="#b4b4b4"/><rect x="921.1" y="716.3" width="103.4" height="103.4" fill="#b0b0b0"/><rect x="-0.5" y="818.7" width="103.4" height="103.4" fill="#b7b7b7"/><rect x="101.9" y="818.7" width="103.4" height="103.4" fill="#b2b2b2"/><rect x="204.3" y="818.7" width="103.4" height="103.4" fill="#b8b8b8"/><rect x="306.7" y="818.7" width="103.4" height="103.4" fill="#bdbdbd"/><rect x="409.1" y="818.7" width="103.4" height="103.4" fill="#bababa"/><rect x="511.5" y="818.7" width="103.4" height="103.4" fill="#b7b7b7"/><rect x="613.9" y="818.7" width="103.4" height="103.4" fill="#b2b2b2"/><rect x="716.3" y="818.7" width="103.4" height="103.4" fill="#aeaeae"/><rect x="818.7" y="818.7" width="103.4" height="103.4" fill="#acacac"/><rect x="921.1" y="818.7" width="103.4" height="103.4" fill="#ababab"/><rect x="-0.5" y="921.1" width="103.4" height="103.4" fill="#b3b3b3"/><rect x="101.9" y="921.1" width="103.4" height="103.4" fill="#afafaf"/><rect x="204.3" y="921.1" width="103.4" height="103.4" fill="#ababab"/><rect x="306.7" y="921.1" width="103.4" height="103.4" fill="#adadad"/><rect x="409.1" y="921.1" width="103.4" height="103.4" fill="#adadad"/><rect x="511.5" y="921.1" width="103.4" height="103.4" fill="#aaa"/><rect x="613.9" y="921.1" width="103.4" height="103.4" fill="#a8a8a8"/><rect x="716.3" y="921.1" width="103.4" height="103.4" fill="#a6a6a6"/><rect x="818.7" y="921.1" width="103.4" height="103.4" fill="#a6a6a6"/><rect x="921.1" y="921.1" width="103.4" height="103.4" fill="#a6a6a6"/></g><line x1="512" y1="1024" x2="512" fill="none" stroke="#231f20" stroke-miterlimit="10" stroke-width="12.8" opacity="0.75" style="mix-blend-mode:difference"/><g clip-path="url(#b)"><path d="M860.7,755.7c0,31-25.7,50.2-57.5,44.1a1542.7,1542.7,0,0,0-576.3-1.2,31.1,31.1,0,0,1-11.8-.2c0-.2-51.9-12-51.8-42.7V334.3a37.4,37.4,0,0,1,2.5-12.1s23.2-56.3,55-62.4a1542.7,1542.7,0,0,1,576.3-1.2,44.1,44.1,0,0,1,11.8,4.7q24.8,29.1,49.3,58.9a37.4,37.4,0,0,1,2.5,12.1ZM226.9,303.6a39.6,39.6,0,0,0-11.7,4.8s-6,3.9-6,9.9V739.8a28.2,28.2,0,0,0,2.6,10.9,8.5,8.5,0,0,0,9,4.1,1542.7,1542.7,0,0,1,576.3-1.2,30.5,30.5,0,0,0,11.7-.3s6-1.5,6-7.5V324.3a35.9,35.9,0,0,0-2.6-11.9c-1.1-1.4-2.3-2.7-3.4-4a39.6,39.6,0,0,0-11.7-4.8A1544,1544,0,0,0,226.9,303.6Zm98.2,164.8c-38.6,4.7-69.7-20.1-69.7-57.4s31.1-72.9,69.7-77.6,67.4,55.4,67.4,55.3a14.9,14.9,0,0,1,0,11S363.6,463.7,325.1,468.4ZM768.6,697.5a5.1,5.1,0,0,1-6.2,5,1541.4,1541.4,0,0,0-500.8,0,5.1,5.1,0,0,1-6.2-5V642c0-3.3,2-8.2,4.4-10.9q53.6-60.9,107.5-118a6.4,6.4,0,0,1,8.8-.8q24.8,21.8,49.6,44.2a6.4,6.4,0,0,0,8.8-.5q89.1-90.3,178.4-170.2a6.5,6.5,0,0,1,8.8.6q71.5,74.1,142.5,154.7c2.4,2.7,4.4,7.6,4.4,10.9Z" fill="#fff"/></g><g clip-path="url(#c)"><path d="M860.7,755.7c0,31-25.7,50.2-57.5,44.1a1542.7,1542.7,0,0,0-576.3-1.2,31.1,31.1,0,0,1-11.8-.2c0-.2-51.9-12-51.8-42.7V334.3a37.4,37.4,0,0,1,2.5-12.1s23.2-56.3,55-62.4a1542.7,1542.7,0,0,1,576.3-1.2,44.1,44.1,0,0,1,11.8,4.7q24.8,29.1,49.3,58.9a37.4,37.4,0,0,1,2.5,12.1ZM226.9,303.6a39.6,39.6,0,0,0-11.7,4.8s-6,3.9-6,9.9V739.8a28.2,28.2,0,0,0,2.6,10.9,8.5,8.5,0,0,0,9,4.1,1542.7,1542.7,0,0,1,576.3-1.2,30.5,30.5,0,0,0,11.7-.3s6-1.5,6-7.5V324.3a35.9,35.9,0,0,0-2.6-11.9c-1.1-1.4-2.3-2.7-3.4-4a39.6,39.6,0,0,0-11.7-4.8A1544,1544,0,0,0,226.9,303.6Zm98.2,164.8c-38.6,4.7-69.7-20.1-69.7-57.4s31.1-72.9,69.7-77.6,67.4,55.4,67.4,55.3a14.9,14.9,0,0,1,0,11S363.6,463.7,325.1,468.4ZM768.6,697.5a5.1,5.1,0,0,1-6.2,5,1541.4,1541.4,0,0,0-500.8,0,5.1,5.1,0,0,1-6.2-5V642c0-3.3,2-8.2,4.4-10.9q53.6-60.9,107.5-118a6.4,6.4,0,0,1,8.8-.8q24.8,21.8,49.6,44.2a6.4,6.4,0,0,0,8.8-.5q89.1-90.3,178.4-170.2a6.5,6.5,0,0,1,8.8.6q71.5,74.1,142.5,154.7c2.4,2.7,4.4,7.6,4.4,10.9Z"/></g><g opacity="0.1" style="mix-blend-mode:difference"><g clip-path="url(#b)"><path d="M860.7,755.7c0,31-25.7,50.2-57.5,44.1a1542.7,1542.7,0,0,0-576.3-1.2,31.1,31.1,0,0,1-11.8-.2c0-.2-51.9-12-51.8-42.7V334.3a37.4,37.4,0,0,1,2.5-12.1s23.2-56.3,55-62.4a1542.7,1542.7,0,0,1,576.3-1.2,44.1,44.1,0,0,1,11.8,4.7q24.8,29.1,49.3,58.9a37.4,37.4,0,0,1,2.5,12.1ZM226.9,303.6a39.6,39.6,0,0,0-11.7,4.8s-6,3.9-6,9.9V739.8a28.2,28.2,0,0,0,2.6,10.9,8.5,8.5,0,0,0,9,4.1,1542.7,1542.7,0,0,1,576.3-1.2,30.5,30.5,0,0,0,11.7-.3s6-1.5,6-7.5V324.3a35.9,35.9,0,0,0-2.6-11.9c-1.1-1.4-2.3-2.7-3.4-4a39.6,39.6,0,0,0-11.7-4.8A1544,1544,0,0,0,226.9,303.6Zm98.2,164.8c-38.6,4.7-69.7-20.1-69.7-57.4s31.1-72.9,69.7-77.6,67.4,55.4,67.4,55.3a14.9,14.9,0,0,1,0,11S363.6,463.7,325.1,468.4ZM768.6,697.5a5.1,5.1,0,0,1-6.2,5,1541.4,1541.4,0,0,0-500.8,0,5.1,5.1,0,0,1-6.2-5V642c0-3.3,2-8.2,4.4-10.9q53.6-60.9,107.5-118a6.4,6.4,0,0,1,8.8-.8q24.8,21.8,49.6,44.2a6.4,6.4,0,0,0,8.8-.5q89.1-90.3,178.4-170.2a6.5,6.5,0,0,1,8.8.6q71.5,74.1,142.5,154.7c2.4,2.7,4.4,7.6,4.4,10.9Z" fill="none" stroke="gray" stroke-linecap="square" stroke-linejoin="bevel" stroke-width="10.24"/><path d="M860.7,755.7c0,31-25.7,50.2-57.5,44.1a1542.7,1542.7,0,0,0-576.3-1.2,31.1,31.1,0,0,1-11.8-.2c0-.2-51.9-12-51.8-42.7V334.3a37.4,37.4,0,0,1,2.5-12.1s23.2-56.3,55-62.4a1542.7,1542.7,0,0,1,576.3-1.2,44.1,44.1,0,0,1,11.8,4.7q24.8,29.1,49.3,58.9a37.4,37.4,0,0,1,2.5,12.1ZM226.9,303.6a39.6,39.6,0,0,0-11.7,4.8s-6,3.9-6,9.9V739.8a28.2,28.2,0,0,0,2.6,10.9,8.5,8.5,0,0,0,9,4.1,1542.7,1542.7,0,0,1,576.3-1.2,30.5,30.5,0,0,0,11.7-.3s6-1.5,6-7.5V324.3a35.9,35.9,0,0,0-2.6-11.9c-1.1-1.4-2.3-2.7-3.4-4a39.6,39.6,0,0,0-11.7-4.8A1544,1544,0,0,0,226.9,303.6Zm98.2,164.8c-38.6,4.7-69.7-20.1-69.7-57.4s31.1-72.9,69.7-77.6,67.4,55.4,67.4,55.3a14.9,14.9,0,0,1,0,11S363.6,463.7,325.1,468.4ZM768.6,697.5a5.1,5.1,0,0,1-6.2,5,1541.4,1541.4,0,0,0-500.8,0,5.1,5.1,0,0,1-6.2-5V642c0-3.3,2-8.2,4.4-10.9q53.6-60.9,107.5-118a6.4,6.4,0,0,1,8.8-.8q24.8,21.8,49.6,44.2a6.4,6.4,0,0,0,8.8-.5q89.1-90.3,178.4-170.2a6.5,6.5,0,0,1,8.8.6q71.5,74.1,142.5,154.7c2.4,2.7,4.4,7.6,4.4,10.9Z" fill="none" stroke="gray" stroke-linecap="square" stroke-linejoin="bevel" stroke-width="10.24"/></g><g clip-path="url(#c)"><path d="M860.7,755.7c0,31-25.7,50.2-57.5,44.1a1542.7,1542.7,0,0,0-576.3-1.2,31.1,31.1,0,0,1-11.8-.2c0-.2-51.9-12-51.8-42.7V334.3a37.4,37.4,0,0,1,2.5-12.1s23.2-56.3,55-62.4a1542.7,1542.7,0,0,1,576.3-1.2,44.1,44.1,0,0,1,11.8,4.7q24.8,29.1,49.3,58.9a37.4,37.4,0,0,1,2.5,12.1ZM226.9,303.6a39.6,39.6,0,0,0-11.7,4.8s-6,3.9-6,9.9V739.8a28.2,28.2,0,0,0,2.6,10.9,8.5,8.5,0,0,0,9,4.1,1542.7,1542.7,0,0,1,576.3-1.2,30.5,30.5,0,0,0,11.7-.3s6-1.5,6-7.5V324.3a35.9,35.9,0,0,0-2.6-11.9c-1.1-1.4-2.3-2.7-3.4-4a39.6,39.6,0,0,0-11.7-4.8A1544,1544,0,0,0,226.9,303.6Zm98.2,164.8c-38.6,4.7-69.7-20.1-69.7-57.4s31.1-72.9,69.7-77.6,67.4,55.4,67.4,55.3a14.9,14.9,0,0,1,0,11S363.6,463.7,325.1,468.4ZM768.6,697.5a5.1,5.1,0,0,1-6.2,5,1541.4,1541.4,0,0,0-500.8,0,5.1,5.1,0,0,1-6.2-5V642c0-3.3,2-8.2,4.4-10.9q53.6-60.9,107.5-118a6.4,6.4,0,0,1,8.8-.8q24.8,21.8,49.6,44.2a6.4,6.4,0,0,0,8.8-.5q89.1-90.3,178.4-170.2a6.5,6.5,0,0,1,8.8.6q71.5,74.1,142.5,154.7c2.4,2.7,4.4,7.6,4.4,10.9Z" fill="none" stroke="gray" stroke-linecap="square" stroke-linejoin="bevel" stroke-width="10.24"/><path d="M860.7,755.7c0,31-25.7,50.2-57.5,44.1a1542.7,1542.7,0,0,0-576.3-1.2,31.1,31.1,0,0,1-11.8-.2c0-.2-51.9-12-51.8-42.7V334.3a37.4,37.4,0,0,1,2.5-12.1s23.2-56.3,55-62.4a1542.7,1542.7,0,0,1,576.3-1.2,44.1,44.1,0,0,1,11.8,4.7q24.8,29.1,49.3,58.9a37.4,37.4,0,0,1,2.5,12.1ZM226.9,303.6a39.6,39.6,0,0,0-11.7,4.8s-6,3.9-6,9.9V739.8a28.2,28.2,0,0,0,2.6,10.9,8.5,8.5,0,0,0,9,4.1,1542.7,1542.7,0,0,1,576.3-1.2,30.5,30.5,0,0,0,11.7-.3s6-1.5,6-7.5V324.3a35.9,35.9,0,0,0-2.6-11.9c-1.1-1.4-2.3-2.7-3.4-4a39.6,39.6,0,0,0-11.7-4.8A1544,1544,0,0,0,226.9,303.6Zm98.2,164.8c-38.6,4.7-69.7-20.1-69.7-57.4s31.1-72.9,69.7-77.6,67.4,55.4,67.4,55.3a14.9,14.9,0,0,1,0,11S363.6,463.7,325.1,468.4ZM768.6,697.5a5.1,5.1,0,0,1-6.2,5,1541.4,1541.4,0,0,0-500.8,0,5.1,5.1,0,0,1-6.2-5V642c0-3.3,2-8.2,4.4-10.9q53.6-60.9,107.5-118a6.4,6.4,0,0,1,8.8-.8q24.8,21.8,49.6,44.2a6.4,6.4,0,0,0,8.8-.5q89.1-90.3,178.4-170.2a6.5,6.5,0,0,1,8.8.6q71.5,74.1,142.5,154.7c2.4,2.7,4.4,7.6,4.4,10.9Z" fill="none" stroke="gray" stroke-linecap="square" stroke-linejoin="bevel" stroke-width="10.24"/></g></g></g></g></svg>
